<?xml version="1.0" encoding="UTF-8" standalone="no"?>
<svg
   width="34.018551mm"
   height="15.619958mm"
   viewBox="0 0 34.018551 15.619958"
   version="1.1"
   id="svg1010"
   inkscape:version="1.2.2 (732a01da63, 2022-12-09)"
   sodipodi:docname="logo_short_white.svg"
   inkscape:export-filename="logo_short_light_blue.png"
   inkscape:export-xdpi="200"
   inkscape:export-ydpi="200"
   xmlns:inkscape="http://www.inkscape.org/namespaces/inkscape"
   xmlns:sodipodi="http://sodipodi.sourceforge.net/DTD/sodipodi-0.dtd"
   xmlns="http://www.w3.org/2000/svg"
   xmlns:svg="http://www.w3.org/2000/svg"
   xmlns:rdf="http://www.w3.org/1999/02/22-rdf-syntax-ns#"
   xmlns:cc="http://creativecommons.org/ns#"
   xmlns:dc="http://purl.org/dc/elements/1.1/">
  <defs
     id="defs1004" />
  <sodipodi:namedview
     id="base"
     pagecolor="#ffffff"
     bordercolor="#666666"
     borderopacity="1.0"
     inkscape:pageopacity="0.0"
     inkscape:pageshadow="2"
     inkscape:zoom="3.959798"
     inkscape:cx="62.881996"
     inkscape:cy="85.989235"
     inkscape:document-units="mm"
     inkscape:current-layer="LOGO"
     inkscape:document-rotation="0"
     showgrid="false"
     fit-margin-top="0"
     fit-margin-left="0"
     fit-margin-right="0"
     fit-margin-bottom="0"
     inkscape:window-width="1406"
     inkscape:window-height="1040"
     inkscape:window-x="245"
     inkscape:window-y="0"
     inkscape:window-maximized="0"
     inkscape:showpageshadow="2"
     inkscape:pagecheckerboard="0"
     inkscape:deskcolor="#d1d1d1" />
  <metadata
     id="metadata1007">
    <rdf:RDF>
      <cc:Work
         rdf:about="">
        <dc:format>image/svg+xml</dc:format>
        <dc:type
           rdf:resource="http://purl.org/dc/dcmitype/StillImage" />
      </cc:Work>
    </rdf:RDF>
  </metadata>
  <g
     inkscape:label="Lag 1"
     inkscape:groupmode="layer"
     id="layer1"
     transform="translate(-95.734212,-105.12841)">
    <g
       id="LOGO"
       transform="matrix(0.73793704,0,0,0.73793704,-14.870352,-38.332799)">
      <g
         id="g82"
         style="fill:#c9dce6;fill-opacity:1">
        <path
           d="m 179.702,210.044 v -6.615 c 0,-0.982 -0.191,-1.7 -0.576,-2.152 -0.383,-0.451 -0.971,-0.677 -1.762,-0.677 -1.033,0 -1.797,0.284 -2.291,0.854 -0.496,0.569 -0.742,1.463 -0.742,2.681 v 5.91 h -0.938 v -6.893 c 0,-1.701 -0.779,-2.552 -2.338,-2.552 -1.059,0 -1.828,0.308 -2.311,0.923 -0.482,0.616 -0.723,1.601 -0.723,2.955 v 5.566 h -0.92 V 199.96 h 0.762 l 0.195,1.382 h 0.055 c 0.279,-0.501 0.674,-0.889 1.188,-1.164 0.514,-0.275 1.08,-0.413 1.697,-0.413 1.59,0 2.611,0.597 3.063,1.791 h 0.037 c 0.328,-0.576 0.768,-1.018 1.322,-1.327 0.553,-0.31 1.182,-0.464 1.887,-0.464 1.102,0 1.928,0.294 2.479,0.881 0.549,0.588 0.824,1.521 0.824,2.803 v 6.596 h -0.908 z"
           id="path76"
           style="fill:#c9dce6;fill-opacity:1" />
        <path
           d="m 184.796,210.044 h -0.92 v -14.436 h 0.92 z"
           id="path78"
           style="fill:#c9dce6;fill-opacity:1" />
        <path
           d="m 195.565,199.672 c 0,0.841 -0.264,1.55 -0.793,2.124 -0.527,0.576 -1.238,0.943 -2.129,1.104 v 0.056 c 1.09,0.136 1.918,0.482 2.486,1.039 0.57,0.557 0.854,1.305 0.854,2.245 0,1.268 -0.432,2.25 -1.293,2.945 -0.863,0.696 -2.105,1.044 -3.727,1.044 -1.379,0 -2.582,-0.257 -3.609,-0.77 v -0.919 c 0.52,0.272 1.104,0.485 1.75,0.64 0.645,0.155 1.254,0.232 1.822,0.232 1.367,0 2.395,-0.276 3.08,-0.83 0.688,-0.554 1.031,-1.335 1.031,-2.343 0,-0.896 -0.352,-1.587 -1.053,-2.069 -0.703,-0.482 -1.734,-0.723 -3.096,-0.723 h -1.465 v -0.891 h 1.484 c 1.125,0 2.018,-0.268 2.676,-0.803 0.66,-0.535 0.988,-1.261 0.988,-2.176 0,-0.755 -0.268,-1.359 -0.803,-1.813 -0.535,-0.455 -1.234,-0.683 -2.102,-0.683 -0.674,0 -1.289,0.095 -1.846,0.283 -0.557,0.189 -1.182,0.512 -1.875,0.97 l -0.453,-0.622 c 0.525,-0.438 1.158,-0.786 1.9,-1.043 0.742,-0.257 1.494,-0.385 2.256,-0.385 1.25,0 2.215,0.295 2.895,0.886 0.68,0.591 1.022,1.426 1.022,2.502 z"
           id="path80"
           style="fill:#c9dce6;fill-opacity:1" />
      </g>
      <path
         display="none"
         fill="#ffffff"
         d="m 174.105,199.768 0.021,-0.041 -11.805,-6.75 -0.008,0.015 -0.018,-0.033 -11.822,6.769 0.022,0.041 v 13.451 h 0.021 l -0.021,0.039 11.786,6.678 0.014,0.027 11.822,-6.748 -0.014,-0.024 v -13.424 z m -0.866,12.561 -10.079,-5.905 10.079,-5.92 z m -10.505,-6.647 v -11.428 l 9.859,5.637 z m -0.864,-0.015 -9.862,-5.778 9.862,-5.645 z m -0.401,0.759 -10.106,5.935 v -11.856 z m 0.401,0.756 v 11.479 l -9.95,-5.636 z m 0.864,-0.015 9.938,5.823 -9.938,5.673 z"
         id="path84" />
      <g
         id="Ebene_2"
         style="stroke:#c9dce6;stroke-opacity:1">
        <path
           id="path123"
           style="fill:#c9dce6;fill-opacity:1;stroke-width:0.72906;stroke-dasharray:none"
           d="m 160.375,214.26 c 0,0.526 -0.429,0.951 -0.955,0.951 -0.528,0 -0.956,-0.425 -0.956,-0.951 0,-0.531 0.428,-0.954 0.956,-0.954 0.526,0 0.955,0.423 0.955,0.954 z m 8.069,-4.556 c 0,0.525 -0.428,0.953 -0.952,0.953 -0.526,0 -0.956,-0.428 -0.956,-0.953 0,-0.531 0.43,-0.958 0.956,-0.958 0.525,0 0.952,0.427 0.952,0.958 z m -16.288,0 c 0,0.525 -0.43,0.953 -0.953,0.953 -0.527,0 -0.955,-0.428 -0.955,-0.953 0,-0.531 0.428,-0.958 0.955,-0.958 0.524,0 0.953,0.427 0.953,0.958 z m 0.151,-9.197 c 0,0.528 -0.428,0.95 -0.953,0.95 -0.527,0 -0.956,-0.422 -0.956,-0.95 0,-0.532 0.429,-0.957 0.956,-0.957 0.525,0 0.953,0.425 0.953,0.957 z m 8.068,4.566 c 0,0.526 -0.429,0.95 -0.955,0.95 -0.528,0 -0.956,-0.424 -0.956,-0.95 0,-0.53 0.428,-0.956 0.956,-0.956 0.526,0 0.955,0.426 0.955,0.956 z m 8.103,-4.567 c 0,0.528 -0.426,0.95 -0.953,0.95 -0.526,0 -0.956,-0.422 -0.956,-0.95 0,-0.532 0.43,-0.957 0.956,-0.957 0.527,0 0.953,0.425 0.953,0.957 z m -8.046,-4.777 a 0.95599997,0.95599997 0 0 1 -0.956,0.956 0.95599997,0.95599997 0 0 1 -0.956,-0.956 0.95599997,0.95599997 0 0 1 0.956,-0.956 0.95599997,0.95599997 0 0 1 0.956,0.956 z m 7.124,13.972 -0.066,-9.262 m 0.133,9.35301 -8.203,4.46599 m 0,-9.113 8.203,4.64701 m -8.203,-4.64701 -8.06799,4.64701 m 8.06999,4.46599 -0.002,-9.113 m -8.218,4.64701 8.365,4.46599 m -8.21499,-13.819 -0.15001,9.35301 m 0.15001,-9.35301 8.06999,-4.71 m -0.002,9.416 -8.06799,-4.706 m 16.27099,0.064 -8.203,4.64199 m 0.002,-9.416 8.06801,4.71 m -8.06801,-4.57801 -9.9e-4,8.789" />
      </g>
    </g>
  </g>
</svg>
