<?xml version="1.0" encoding="UTF-8" standalone="no"?>
<!-- Created with Inkscape (http://www.inkscape.org/) -->

<svg
   width="132.52112mm"
   height="22.013105mm"
   viewBox="0 0 132.52112 22.013105"
   version="1.1"
   id="svg36686"
   inkscape:version="1.2.2 (732a01da63, 2022-12-09)"
   sodipodi:docname="trees.svg"
   xmlns:inkscape="http://www.inkscape.org/namespaces/inkscape"
   xmlns:sodipodi="http://sodipodi.sourceforge.net/DTD/sodipodi-0.dtd"
   xmlns="http://www.w3.org/2000/svg"
   xmlns:svg="http://www.w3.org/2000/svg">
  <sodipodi:namedview
     id="namedview36688"
     pagecolor="#ffffff"
     bordercolor="#666666"
     borderopacity="1.0"
     inkscape:showpageshadow="2"
     inkscape:pageopacity="0.0"
     inkscape:pagecheckerboard="0"
     inkscape:deskcolor="#d1d1d1"
     inkscape:document-units="mm"
     showgrid="false"
     inkscape:zoom="0.76167929"
     inkscape:cx="6.5644426"
     inkscape:cy="-206.77994"
     inkscape:window-width="1920"
     inkscape:window-height="1010"
     inkscape:window-x="-6"
     inkscape:window-y="-6"
     inkscape:window-maximized="1"
     inkscape:current-layer="layer1" />
  <defs
     id="defs36683" />
  <g
     inkscape:label="Layer 1"
     inkscape:groupmode="layer"
     id="layer1"
     transform="translate(-36.907859,-203.66713)">
    <path
       id="rect32294"
       style="fill:#ffffff;stroke-width:0.3;stroke-dasharray:0.3, 0.3;paint-order:stroke markers fill;stop-color:#000000"
       d="m 42.879078,203.70531 -0.232544,0.47181 c -0.0252,0.0508 -0.09155,0.0992 -0.147795,0.10748 l -0.520381,0.0754 c -0.05644,0.008 -0.06914,0.0478 -0.02842,0.0873 l 0.376721,0.36691 c 0.04052,0.0395 0.066,0.11811 0.05633,0.17415 l -0.08888,0.51779 c -0.0097,0.056 0.0235,0.0807 0.0739,0.0543 l 0.465605,-0.24494 c 0.05039,-0.0264 0.13254,-0.0264 0.182934,0 l 0.465088,0.24494 c 0.0504,0.0264 0.08357,0.002 0.0739,-0.0543 l -0.08888,-0.51779 c -0.0095,-0.056 0.01592,-0.13464 0.05684,-0.17415 l 0.376721,-0.36691 c 0.04072,-0.0395 0.02762,-0.0791 -0.02842,-0.0873 l -0.520382,-0.0754 c -0.05624,-0.008 -0.123113,-0.0567 -0.148311,-0.10748 l -0.232027,-0.47181 c -0.0252,-0.0508 -0.06679,-0.051 -0.09198,0 z m 81.109262,0.68006 -0.20309,0.41238 c -0.022,0.0444 -0.0805,0.0863 -0.12971,0.0935 l -0.45527,0.0667 c -0.0494,0.007 -0.0604,0.0414 -0.0248,0.076 l 0.32969,0.32091 c 0.0354,0.0346 0.0576,0.10343 0.0491,0.15245 l -0.0775,0.4532 c -0.009,0.049 0.0205,0.0701 0.0646,0.047 l 0.40721,-0.21394 c 0.0441,-0.0231 0.11612,-0.0231 0.1602,0 l 0.4067,0.21394 c 0.0441,0.0231 0.0731,0.002 0.0646,-0.047 l -0.0775,-0.4532 c -0.008,-0.049 0.0133,-0.11789 0.0491,-0.15245 l 0.3297,-0.32091 c 0.0356,-0.0346 0.0242,-0.0687 -0.0248,-0.076 l -0.45527,-0.0667 c -0.0492,-0.007 -0.10715,-0.0491 -0.12919,-0.0935 l -0.20361,-0.41238 c -0.022,-0.0444 -0.0581,-0.0446 -0.0801,0 z m 34.37929,1.16582 -0.20981,0.42582 c -0.0228,0.0459 -0.083,0.0897 -0.13384,0.0971 l -0.47025,0.0687 c -0.051,0.007 -0.0621,0.0429 -0.0253,0.0785 l 0.34003,0.33125 c 0.0366,0.0357 0.0599,0.10648 0.0512,0.1571 l -0.0806,0.46819 c -0.009,0.0506 0.0217,0.0724 0.0672,0.0486 l 0.42013,-0.22117 c 0.0455,-0.0239 0.11985,-0.0239 0.16536,0 l 0.42013,0.22117 c 0.0455,0.0238 0.0754,0.002 0.0667,-0.0486 l -0.0801,-0.46819 c -0.009,-0.0506 0.0142,-0.12141 0.0512,-0.1571 l 0.34003,-0.33125 c 0.0368,-0.0357 0.0253,-0.0711 -0.0253,-0.0785 l -0.47026,-0.0687 c -0.0508,-0.007 -0.11108,-0.0513 -0.13384,-0.0971 l -0.20981,-0.42582 c -0.0228,-0.0459 -0.0599,-0.0461 -0.0827,0 z m -115.613609,0.0222 -0.185002,0.0977 c -0.08345,0.0437 -0.191083,0.14634 -0.239262,0.22738 l -0.675927,1.1405 c -0.04798,0.081 -0.12669,0.21403 -0.174667,0.29507 l -1.147216,1.9358 c -0.04798,0.081 -0.0101,0.14728 0.08423,0.14728 h 0.469221 c 0.09434,0 0.132524,0.0666 0.08475,0.14779 l -1.796272,3.05821 c -0.04778,0.0812 -0.0096,0.1478 0.08475,0.1478 h 0.906922 c 0.09434,0 0.131894,0.0664 0.08371,0.14727 l -1.826245,3.05925 c -0.01289,0.0215 0.02345,0.0208 0.02222,0.0393 -0.966318,0.16754 -1.537374,0.28474 -1.537374,0.28474 v 9.37876 H 169.42897 v -9.37876 c 0,0 -1.38312,0.0132 -2.74453,0.0284 l -1.16427,-1.94975 c -0.0323,-0.0542 -0.007,-0.0987 0.0563,-0.0987 h 0.60823 c 0.0633,0 0.0888,-0.0447 0.0568,-0.0992 l -1.20561,-2.05207 c -0.0321,-0.0545 -0.006,-0.0992 0.0568,-0.0992 h 0.31523 c 0.0633,0 0.0885,-0.0443 0.0563,-0.0987 l -0.76947,-1.29915 c -0.0322,-0.0544 -0.0851,-0.14354 -0.1173,-0.19792 l -0.46457,-0.78341 c -0.0322,-0.0544 -0.10407,-0.1231 -0.1602,-0.15245 l -0.0904,-0.0475 c -0.056,-0.0295 -0.14761,-0.0295 -0.20361,0 l -0.12402,0.0656 c -0.056,0.0294 -0.12839,0.0981 -0.16072,0.15244 l -0.45372,0.76533 c -0.0322,0.0544 -0.0851,0.14355 -0.1173,0.19792 l -0.76946,1.29915 c -0.0322,0.0544 -0.007,0.0987 0.0563,0.0987 h 0.31471 c 0.0633,0 0.0889,0.0447 0.0568,0.0992 l -0.7984,1.35909 -1.55443,-2.64532 c -0.0431,-0.0734 -0.009,-0.13384 0.0765,-0.13384 h 0.42426 c 0.0852,0 0.1193,-0.0596 0.076,-0.13281 l -1.03611,-1.74873 c -0.0433,-0.0732 -0.11428,-0.19294 -0.15762,-0.26613 l -0.62528,-1.05472 c -0.0433,-0.0732 -0.14045,-0.16564 -0.21601,-0.20515 l -0.12144,-0.0641 c -0.0754,-0.0397 -0.19902,-0.0397 -0.2744,0 l -0.16692,0.0884 c -0.0754,0.0395 -0.173,0.13196 -0.21652,0.20516 l -0.6103,1.03043 c -0.0433,0.0732 -0.11428,0.19294 -0.15761,0.26613 l -1.03611,1.74873 c -0.0433,0.0732 -0.009,0.13333 0.076,0.13333 h 0.42375 c 0.0852,0 0.11963,0.0599 0.0765,0.13332 l -1.62212,2.76211 c -0.0432,0.0734 -0.009,0.13332 0.0765,0.13332 h 0.81907 c 0.0852,0 0.11896,0.0598 0.0755,0.13281 l -1.59474,2.67219 c -1.2698,-0.009 -2.64931,-0.0608 -4.09742,-0.13643 l -0.95447,-1.59835 c -0.0258,-0.0433 -0.006,-0.0786 0.0444,-0.0786 h 0.48576 c 0.0505,0 0.0709,-0.0356 0.0455,-0.0791 l -0.96222,-1.63814 c -0.0256,-0.0435 -0.005,-0.0791 0.0455,-0.0791 h 0.25166 c 0.0505,0 0.0707,-0.0351 0.045,-0.0785 l -0.61443,-1.03714 c -0.0257,-0.0434 -0.0678,-0.11422 -0.0935,-0.15762 l -0.37052,-0.62528 c -0.0257,-0.0434 -0.0833,-0.0985 -0.12815,-0.12196 l -0.0718,-0.0377 c -0.0447,-0.0235 -0.11809,-0.0235 -0.16278,0 l -0.0992,0.0522 c -0.0447,0.0234 -0.10236,0.0786 -0.12816,0.12196 l -0.36174,0.61081 c -0.0257,0.0434 -0.0678,0.11474 -0.0935,0.15813 l -0.61443,1.03663 c -0.0257,0.0434 -0.006,0.0785 0.045,0.0785 h 0.25114 c 0.0505,0 0.0711,0.0361 0.0455,0.0796 l -0.9617,1.63763 c -0.0256,0.0435 -0.005,0.0791 0.0455,0.0791 h 0.48576 c 0.0505,0 0.0703,0.0353 0.0444,0.0786 l -0.77773,1.3038 c -5.13335,-0.37491 -10.76943,-0.87776 -16.02434,-1.04903 v -0.0331 c 0,-0.0505 0.0415,-0.092 0.092,-0.092 h 1.94976 c 0.0505,0 0.0708,-0.0353 0.045,-0.0786 l -0.97823,-1.63866 c -0.0258,-0.0433 -0.006,-0.0786 0.0444,-0.0786 h 0.48576 c 0.0505,0 0.0709,-0.0356 0.0455,-0.0791 l -0.96221,-1.63814 c -0.0256,-0.0435 -0.005,-0.0791 0.0455,-0.0791 h 0.25167 c 0.0505,0 0.0707,-0.0351 0.045,-0.0786 l -0.61445,-1.03714 c -0.0257,-0.0434 -0.0678,-0.11422 -0.0935,-0.15762 l -0.37052,-0.62528 c -0.0257,-0.0434 -0.0834,-0.0985 -0.12816,-0.12196 l -0.0718,-0.0377 c -0.0447,-0.0235 -0.11809,-0.0235 -0.16278,0 l -0.0992,0.0522 c -0.0447,0.0234 -0.10235,0.0786 -0.12815,0.12196 l -0.36174,0.61081 c -0.0257,0.0434 -0.0678,0.11474 -0.0935,0.15813 l -0.61443,1.03663 c -0.0257,0.0434 -0.006,0.0786 0.045,0.0786 h 0.25114 c 0.0505,0 0.0711,0.0361 0.0455,0.0796 l -0.96169,1.63763 c -0.0256,0.0435 -0.005,0.0791 0.0455,0.0791 h 0.48575 c 0.0505,0 0.0702,0.0353 0.0444,0.0786 l -0.6134,1.02785 -1.07848,-1.80661 c -0.0421,-0.0707 -0.01,-0.12868 0.0729,-0.12868 h 0.79325 c 0.0825,0 0.11602,-0.0587 0.0744,-0.1297 l -1.572,-2.67478 c -0.0418,-0.071 -0.008,-0.12919 0.0744,-0.12919 h 0.41083 c 0.0825,0 0.11535,-0.0583 0.0734,-0.12919 l -1.00304,-1.69292 c -0.042,-0.0709 -0.111,-0.1875 -0.15296,-0.25838 l -0.60565,-1.02113 c -0.042,-0.0709 -0.13612,-0.16017 -0.20929,-0.19844 l -0.1173,-0.062 c -0.073,-0.0384 -0.19263,-0.0384 -0.26562,0 l -0.16175,0.0858 c -0.073,0.0383 -0.16715,0.12756 -0.20929,0.19843 l -0.59117,0.99788 c -0.042,0.0709 -0.111,0.18698 -0.15297,0.25786 l -1.00304,1.69344 c -0.042,0.0709 -0.009,0.12867 0.0734,0.12867 h 0.41031 c 0.0825,0 0.11621,0.0581 0.0744,0.12919 l -1.57096,2.67478 c -0.0418,0.0711 -0.009,0.12919 0.0739,0.12919 h 0.79323 c 0.0825,0 0.11552,0.058 0.0734,0.12867 l -1.51256,2.53421 -1.08779,-1.82056 c -0.0323,-0.0542 -0.007,-0.0992 0.0563,-0.0992 h 0.60875 c 0.0633,0 0.0888,-0.0442 0.0568,-0.0987 l -1.20562,-2.05259 c -0.0321,-0.0545 -0.006,-0.0987 0.0568,-0.0987 h 0.31523 c 0.0633,0 0.0885,-0.0448 0.0563,-0.0992 l -0.76998,-1.29914 c -0.0322,-0.0544 -0.0851,-0.14355 -0.1173,-0.19792 l -0.46406,-0.78342 c -0.0322,-0.0544 -0.10458,-0.12309 -0.16071,-0.15244 l -0.0899,-0.047 c -0.056,-0.0295 -0.14761,-0.0295 -0.20361,0 l -0.12454,0.0656 c -0.056,0.0294 -0.12838,0.0981 -0.16071,0.15245 l -0.4532,0.76532 c -0.0322,0.0544 -0.0851,0.14355 -0.11731,0.19792 l -0.76946,1.29863 c -0.0322,0.0544 -0.007,0.0992 0.0563,0.0992 h 0.31471 c 0.0633,0 0.0889,0.0447 0.0568,0.0992 l -1.2051,2.05155 c -0.0321,0.0545 -0.006,0.0992 0.0568,0.0992 h 0.60875 c 0.0633,0 0.0881,0.0445 0.0558,0.0987 l -1.22525,2.0531 c -0.0325,0.0542 -0.007,0.0987 0.0558,0.0987 h 2.39624 c 0.0176,0 0.0171,0.0249 0.032,0.032 -3.59291,0.17403 -7.57288,0.38586 -11.66544,0.59686 l -1.03353,-1.73012 c -0.0323,-0.0542 -0.007,-0.0987 0.0563,-0.0987 h 0.60875 c 0.0633,0 0.0883,-0.0447 0.0563,-0.0992 l -1.20561,-2.05207 c -0.0321,-0.0545 -0.007,-0.0992 0.0568,-0.0992 h 0.31523 c 0.0633,0 0.0885,-0.0443 0.0563,-0.0987 l -0.76947,-1.29914 c -0.0322,-0.0544 -0.0851,-0.14355 -0.1173,-0.19792 l -0.46457,-0.78342 c -0.0322,-0.0544 -0.10407,-0.12309 -0.1602,-0.15244 l -0.0904,-0.0475 c -0.056,-0.0295 -0.14761,-0.0295 -0.2036,0 l -0.12403,0.0656 c -0.056,0.0294 -0.12839,0.0981 -0.16071,0.15245 l -0.45372,0.76533 c -0.0322,0.0544 -0.0851,0.14354 -0.11731,0.19792 l -0.76946,1.29914 c -0.0322,0.0544 -0.007,0.0987 0.0563,0.0987 h 0.31523 c 0.0633,0 0.0889,0.0447 0.0568,0.0992 l -1.205606,2.05207 c -0.0321,0.0545 -0.006,0.0987 0.0568,0.0987 h 0.608746 c 0.0633,0 0.0887,0.045 0.0563,0.0992 l -1.204066,2.01641 c -0.16161,0.008 -0.32438,0.0162 -0.48575,0.0238 l -0.85783,-1.43712 c -0.0258,-0.0433 -0.006,-0.0786 0.0444,-0.0786 h 0.48576 c 0.0505,0 0.0709,-0.0356 0.0455,-0.0791 l -0.96222,-1.63814 c -0.0256,-0.0435 -0.005,-0.0791 0.0455,-0.0791 h 0.25167 c 0.0505,0 0.0707,-0.0351 0.045,-0.0785 l -0.61444,-1.03714 c -0.0257,-0.0434 -0.0678,-0.11422 -0.0935,-0.15762 l -0.37052,-0.62528 c -0.0257,-0.0434 -0.0834,-0.0985 -0.12816,-0.12196 l -0.0718,-0.0377 c -0.0447,-0.0235 -0.11808,-0.0235 -0.16278,0 l -0.0992,0.0522 c -0.0447,0.0234 -0.10235,0.0786 -0.12815,0.12196 l -0.36174,0.61081 c -0.0257,0.0434 -0.0678,0.11474 -0.0935,0.15813 l -0.61443,1.03663 c -0.0257,0.0434 -0.006,0.0785 0.045,0.0785 h 0.25115 c 0.0505,0 0.0711,0.0361 0.0455,0.0796 l -0.9617,1.63763 c -0.0256,0.0435 -0.005,0.0791 0.0455,0.0791 h 0.48576 c 0.0505,0 0.0702,0.0353 0.0444,0.0786 l -0.97772,1.63866 c -3.3e-4,5.5e-4 8.3e-4,4.8e-4 5.1e-4,0.001 -4.08779,0.16655 -7.97777,0.2873 -11.27424,0.29921 -2.39527,0.009 -4.63784,-0.0929 -6.78098,-0.25218 h 0.31626 c 0.0786,0 0.10989,-0.0551 0.0698,-0.12247 l -1.52239,-2.54868 c -0.0401,-0.0673 -0.009,-0.12248 0.0698,-0.12248 h 0.75602 c 0.0786,0 0.10991,-0.0558 0.0703,-0.1235 l -1.49706,-2.54765 c -0.0398,-0.0677 -0.008,-0.12299 0.0708,-0.12299 h 0.39119 c 0.0786,0 0.11024,-0.055 0.0703,-0.12248 l -0.9555,-1.61282 c -0.04,-0.0675 -0.10576,-0.17796 -0.14573,-0.24546 l -0.57671,-0.97255 c -0.04,-0.0675 -0.12926,-0.15322 -0.19895,-0.18965 l -0.11214,-0.0584 c -0.0695,-0.0366 -0.18318,-0.0366 -0.2527,0 l -0.15451,0.0811 c -0.0695,0.0364 -0.15882,0.12164 -0.19895,0.18914 l -0.56328,0.95033 c -0.04,0.0675 -0.10576,0.17796 -0.14572,0.24546 l -0.9555,1.61282 c -0.04,0.0675 -0.008,0.12299 0.0703,0.12299 h 0.39067 c 0.0786,0 0.1106,0.0553 0.0708,0.12299 l -1.49603,2.54714 c -0.0398,0.0677 -0.008,0.12299 0.0703,0.12299 h 0.75551 c 0.0786,0 0.1099,0.0557 0.0698,0.12299 l -1.18597,1.98747 c -1.28633,-0.15612 -2.55418,-0.30933 -3.80184,-0.46199 0.007,-0.0154 0.0365,-0.0181 0.0233,-0.0403 l -1.0759,-1.80144 c -0.0284,-0.0476 -0.006,-0.0868 0.0491,-0.0868 h 0.53433 c 0.0555,0 0.0776,-0.039 0.0496,-0.0868 l -1.05833,-1.80092 c -0.0281,-0.0478 -0.005,-0.0873 0.0501,-0.0873 h 0.27647 c 0.0555,0 0.0779,-0.0391 0.0496,-0.0868 l -0.67541,-1.13998 c -0.0282,-0.0477 -0.0746,-0.12592 -0.10284,-0.17364 l -0.40772,-0.68729 c -0.0282,-0.0477 -0.0918,-0.10808 -0.14108,-0.13384 l -0.0791,-0.0419 c -0.0491,-0.0259 -0.12966,-0.0259 -0.1788,0 l -0.10904,0.0579 c -0.0491,0.0258 -0.11219,0.0856 -0.14056,0.13332 l -0.39842,0.67179 c -0.0282,0.0477 -0.0746,0.12592 -0.10284,0.17364 l -0.67541,1.1405 c -0.0282,0.0477 -0.006,0.0868 0.0496,0.0868 h 0.27647 c 0.0556,0 0.0777,0.039 0.0496,0.0868 l -1.0573,1.80092 c -0.0281,0.0478 -0.006,0.0868 0.0496,0.0868 h 0.53433 c 0.0555,0 0.0775,0.0392 0.0491,0.0868 l -0.77825,1.30431 c -2.44718,-0.21488 -4.90353,-0.33317 -7.46156,-0.24857 -0.75482,0.025 -1.48372,0.0585 -2.19986,0.0956 l -0.903305,-1.51206 c -0.03233,-0.0542 -0.007,-0.0987 0.05633,-0.0987 h 0.608745 c 0.0633,0 0.0883,-0.0447 0.0563,-0.0992 l -1.205609,-2.05207 c -0.03206,-0.0545 -0.0065,-0.0992 0.05685,-0.0992 h 0.315226 c 0.0633,0 0.08852,-0.0443 0.05633,-0.0987 l -0.769462,-1.29914 c -0.03219,-0.0544 -0.08511,-0.14355 -0.117306,-0.19793 l -0.464571,-0.78341 c -0.03219,-0.0544 -0.104064,-0.12309 -0.160197,-0.15245 l -0.09043,-0.0475 c -0.056,-0.0295 -0.147608,-0.0295 -0.203605,0 l -0.124024,0.0656 c -0.056,0.0293 -0.128387,0.0981 -0.160714,0.15245 l -0.453719,0.76532 c -0.03219,0.0544 -0.08511,0.14355 -0.117305,0.19793 l -0.769462,1.29914 c -0.03219,0.0544 -0.007,0.0987 0.05633,0.0987 h 0.315226 c 0.0633,0 0.0889,0.0447 0.05684,0.0992 l -0.741556,1.26194 -1.524455,-2.59519 c -0.04777,-0.0812 -0.0096,-0.14779 0.08475,-0.14779 h 0.469739 c 0.09434,0 0.131691,-0.0662 0.08372,-0.14728 l -1.1467,-1.9358 c -0.04798,-0.081 -0.12669,-0.21404 -0.174667,-0.29507 l -0.692464,-1.16737 c -0.04798,-0.081 -0.155605,-0.18364 -0.239262,-0.22738 l -0.133842,-0.0708 c -0.08345,-0.0439 -0.220403,-0.0439 -0.303857,0 z m 30.060183,0.57723 -0.19379,0.39274 c -0.021,0.0423 -0.0767,0.083 -0.12351,0.0899 l -0.43356,0.063 c -0.047,0.007 -0.0577,0.0394 -0.0238,0.0723 l 0.31419,0.30592 c 0.0337,0.0329 0.0551,0.098 0.047,0.1447 l -0.0744,0.43149 c -0.008,0.0467 0.02,0.067 0.062,0.045 l 0.38758,-0.2036 c 0.042,-0.022 0.11046,-0.022 0.15244,0 l 0.38757,0.2036 c 0.042,0.022 0.0696,0.002 0.0615,-0.045 l -0.0739,-0.43149 c -0.008,-0.0467 0.0129,-0.11179 0.047,-0.1447 l 0.31368,-0.30592 c 0.0339,-0.0329 0.0234,-0.0655 -0.0233,-0.0723 l -0.43408,-0.063 c -0.0469,-0.007 -0.102,-0.0476 -0.12299,-0.0899 l -0.19379,-0.39274 c -0.021,-0.0423 -0.055,-0.0425 -0.076,0 z m -24.460525,0.81597 -0.156063,0.31626 c -0.01691,0.0341 -0.06148,0.0663 -0.09922,0.0718 l -0.349333,0.0512 c -0.03787,0.005 -0.04644,0.0319 -0.01912,0.0584 l 0.252697,0.24598 c 0.02719,0.0265 0.04421,0.0792 0.03772,0.11679 l -0.05943,0.34778 c -0.0065,0.0376 0.01579,0.0539 0.04961,0.0362 l 0.312125,-0.16433 c 0.03382,-0.0177 0.08918,-0.0177 0.12299,0 l 0.312126,0.16433 c 0.03382,0.0177 0.0561,10e-4 0.04961,-0.0362 l -0.05994,-0.34778 c -0.0064,-0.0376 0.01078,-0.0903 0.03824,-0.11679 l 0.252698,-0.24598 c 0.02732,-0.0265 0.019,-0.0528 -0.0186,-0.0584 l -0.349332,-0.0512 c -0.03774,-0.005 -0.08283,-0.0377 -0.09974,-0.0718 l -0.155546,-0.31626 c -0.01691,-0.0341 -0.04459,-0.0342 -0.0615,0 z m 68.957031,0.008 -0.15607,0.31678 c -0.0169,0.0341 -0.0615,0.0663 -0.0992,0.0718 l -0.34933,0.0506 c -0.0379,0.005 -0.0464,0.0319 -0.0191,0.0584 l 0.2527,0.2465 c 0.0272,0.0265 0.0447,0.0792 0.0382,0.11679 l -0.0599,0.34778 c -0.007,0.0376 0.0158,0.0539 0.0496,0.0362 l 0.31264,-0.16434 c 0.0338,-0.0177 0.0887,-0.0177 0.12247,0 l 0.31213,0.16434 c 0.0338,0.0177 0.0561,0.001 0.0496,-0.0362 l -0.0594,-0.34778 c -0.006,-0.0376 0.0103,-0.0903 0.0377,-0.11679 l 0.25321,-0.2465 c 0.0273,-0.0265 0.0185,-0.0528 -0.0191,-0.0584 l -0.34933,-0.0506 c -0.0377,-0.005 -0.0823,-0.0378 -0.0992,-0.0718 l -0.15606,-0.31678 c -0.0169,-0.0341 -0.0446,-0.0342 -0.0615,0 z m -14.98204,1.05058 -0.15606,0.31626 c -0.0169,0.0341 -0.0615,0.0663 -0.0992,0.0718 l -0.34933,0.0512 c -0.0379,0.005 -0.0464,0.0319 -0.0191,0.0584 l 0.2527,0.24598 c 0.0272,0.0265 0.0442,0.0792 0.0377,0.11678 l -0.0594,0.34779 c -0.006,0.0376 0.0158,0.0539 0.0496,0.0362 l 0.31212,-0.16433 c 0.0338,-0.0177 0.0892,-0.0177 0.12299,0 l 0.31213,0.16433 c 0.0338,0.0177 0.0561,0.001 0.0496,-0.0362 l -0.0599,-0.34779 c -0.006,-0.0376 0.0108,-0.0903 0.0382,-0.11678 l 0.25269,-0.24598 c 0.0273,-0.0265 0.019,-0.0528 -0.0186,-0.0584 l -0.34933,-0.0512 c -0.0377,-0.005 -0.0828,-0.0377 -0.0997,-0.0718 l -0.15554,-0.31626 c -0.0169,-0.0341 -0.0446,-0.0342 -0.0615,0 z m -39.306116,0.0589 -0.13694,0.27751 c -0.0148,0.0299 -0.0542,0.0582 -0.0873,0.063 l -0.30645,0.045 c -0.0332,0.005 -0.0405,0.0279 -0.0165,0.0512 l 0.2217,0.21601 c 0.0239,0.0233 0.0393,0.0693 0.0336,0.10232 l -0.0527,0.3054 c -0.006,0.033 0.0143,0.0471 0.0439,0.0315 l 0.27388,-0.14418 c 0.0297,-0.0156 0.0783,-0.0156 0.108,0 l 0.27389,0.14418 c 0.0297,0.0156 0.0491,0.001 0.0434,-0.0315 l -0.0522,-0.3054 c -0.006,-0.033 0.009,-0.0791 0.0331,-0.10232 l 0.22169,-0.21601 c 0.024,-0.0233 0.0165,-0.0463 -0.0165,-0.0512 l -0.30644,-0.045 c -0.0331,-0.005 -0.0725,-0.0331 -0.0873,-0.063 l -0.13695,-0.27773 c -0.0148,-0.0299 -0.0389,-0.03 -0.0537,0 z m 100.720456,0.11473 -0.15606,0.31625 c -0.0169,0.0341 -0.062,0.0663 -0.0997,0.0718 l -0.34881,0.0511 c -0.0379,0.005 -0.0464,0.0319 -0.0191,0.0584 l 0.2527,0.24598 c 0.0272,0.0265 0.0442,0.0792 0.0377,0.11679 l -0.0594,0.34778 c -0.006,0.0376 0.0158,0.0539 0.0496,0.0362 l 0.31213,-0.16433 c 0.0338,-0.0177 0.0892,-0.0177 0.12299,0 l 0.31212,0.16433 c 0.0338,0.0177 0.0561,0.001 0.0496,-0.0362 l -0.0599,-0.34778 c -0.006,-0.0376 0.0108,-0.0903 0.0382,-0.11679 l 0.2527,-0.24598 c 0.0273,-0.0265 0.0185,-0.0528 -0.0191,-0.0584 l -0.34934,-0.0511 c -0.0377,-0.005 -0.0823,-0.0378 -0.0992,-0.0718 l -0.15606,-0.31625 c -0.0169,-0.0341 -0.0441,-0.0342 -0.061,0 z m -34.33692,0.0899 -0.12454,0.2527 c -0.0135,0.0272 -0.0495,0.0529 -0.0796,0.0574 l -0.27853,0.0408 c -0.0302,0.004 -0.0368,0.0254 -0.015,0.0465 l 0.20153,0.19637 c 0.0217,0.0212 0.0352,0.0635 0.03,0.0935 l -0.0475,0.2775 c -0.005,0.03 0.0128,0.0426 0.0398,0.0284 l 0.24908,-0.13074 c 0.027,-0.0141 0.0712,-0.0141 0.0982,0 l 0.24908,0.13074 c 0.027,0.0141 0.045,0.002 0.0398,-0.0284 l -0.0475,-0.2775 c -0.005,-0.03 0.008,-0.0724 0.03,-0.0935 l 0.20206,-0.19637 c 0.0218,-0.0211 0.0145,-0.0421 -0.0155,-0.0465 l -0.27854,-0.0408 c -0.0301,-0.004 -0.0661,-0.0302 -0.0796,-0.0574 l -0.12402,-0.2527 c -0.0135,-0.0272 -0.0356,-0.0273 -0.0491,0 z m -32.808326,1.5875 -0.12454,0.2527 c -0.0135,0.0272 -0.0495,0.0529 -0.0796,0.0574 l -0.27854,0.0408 c -0.0302,0.004 -0.0368,0.0254 -0.015,0.0465 l 0.20154,0.19637 c 0.0217,0.0212 0.0351,0.0635 0.03,0.0935 l -0.0475,0.2775 c -0.005,0.03 0.0128,0.0426 0.0398,0.0284 l 0.24908,-0.13074 c 0.027,-0.0141 0.0712,-0.0141 0.0982,0 l 0.24908,0.13074 c 0.027,0.0141 0.045,0.002 0.0398,-0.0284 l -0.0481,-0.2775 c -0.005,-0.03 0.009,-0.0724 0.0305,-0.0935 l 0.20206,-0.19637 c 0.0218,-0.0211 0.0145,-0.0421 -0.0155,-0.0465 l -0.27854,-0.0408 c -0.0301,-0.004 -0.0661,-0.0302 -0.0796,-0.0574 l -0.12402,-0.2527 c -0.0135,-0.0272 -0.0356,-0.0273 -0.0491,0 z m 51.329156,0 -0.12454,0.2527 c -0.0135,0.0272 -0.0495,0.0529 -0.0796,0.0574 l -0.27853,0.0408 c -0.0302,0.004 -0.0368,0.0254 -0.015,0.0465 l 0.20154,0.19637 c 0.0217,0.0212 0.0352,0.0635 0.03,0.0935 l -0.0475,0.2775 c -0.005,0.03 0.0128,0.0426 0.0398,0.0284 l 0.24908,-0.13074 c 0.027,-0.0141 0.0712,-0.0141 0.0982,0 l 0.24909,0.13074 c 0.027,0.0141 0.045,0.002 0.0398,-0.0284 l -0.0476,-0.2775 c -0.005,-0.03 0.008,-0.0724 0.03,-0.0935 l 0.20205,-0.19637 c 0.0218,-0.0211 0.0145,-0.0421 -0.0155,-0.0465 l -0.27854,-0.0408 c -0.0301,-0.004 -0.0661,-0.0302 -0.0796,-0.0574 l -0.12402,-0.2527 c -0.0135,-0.0272 -0.0356,-0.0273 -0.0491,0 z m -102.315192,2.89492 h 0.360701 l -0.10542,0.17931 c -0.03206,0.0545 -0.0065,0.0987 0.05684,0.0987 h 0.608749 c 0.0633,0 0.08865,0.045 0.05633,0.0992 l -0.461987,0.77308 -0.59893,-1.00304 c -0.04818,-0.0808 -0.01063,-0.14727 0.08372,-0.14727 z m 115.223972,0.96893 h 0.68058 l -0.25994,0.44235 c -0.032,0.0545 -0.006,0.0992 0.0568,0.0992 h 0.60875 c 0.0633,0 0.0887,0.0445 0.0563,0.0987 l -0.45733,0.76584 -0.76068,-1.2733 c -0.0435,-0.073 -0.01,-0.13281 0.0754,-0.13281 z m -33.03985,1.19941 h 1.18081 c 0.0505,0 0.092,0.0415 0.092,0.092 v 0.015 c -0.41068,-0.0112 -0.82149,-0.0224 -1.22628,-0.0289 z" />
  </g>
</svg>
